<?xml version="1.0" encoding="UTF-8" standalone="no"?>
<!DOCTYPE svg PUBLIC "-//W3C//DTD SVG 1.1//EN"
 "http://www.w3.org/Graphics/SVG/1.1/DTD/svg11.dtd">
<!-- Generated by graphviz version 2.38.0 (20140413.2041)
 -->
<!-- Title: G Pages: 1 -->
<svg width="197pt" height="222pt"
 viewBox="0.00 0.00 197.00 222.00" xmlns="http://www.w3.org/2000/svg" xmlns:xlink="http://www.w3.org/1999/xlink">
<g id="graph0" class="graph" transform="scale(1 1) rotate(0) translate(4 218)">
<title>G</title>
<polygon fill="white" stroke="none" points="-4,4 -4,-218 193,-218 193,4 -4,4"/>
<g id="clust1" class="cluster"><title>cluster_Global</title>
<path fill="none" stroke="gray" d="M20,-8C20,-8 169,-8 169,-8 175,-8 181,-14 181,-20 181,-20 181,-194 181,-194 181,-200 175,-206 169,-206 169,-206 20,-206 20,-206 14,-206 8,-200 8,-194 8,-194 8,-20 8,-20 8,-14 14,-8 20,-8"/>
<text text-anchor="middle" x="94.5" y="-193.2" font-family="Times New Roman,serif" font-size="11.00" fill="gray">Global</text>
</g>
<g id="clust2" class="cluster"><title>cluster_\poggit</title>
<path fill="none" stroke="gray" d="M28,-16C28,-16 161,-16 161,-16 167,-16 173,-22 173,-28 173,-28 173,-166 173,-166 173,-172 167,-178 161,-178 161,-178 28,-178 28,-178 22,-178 16,-172 16,-166 16,-166 16,-28 16,-28 16,-22 22,-16 28,-16"/>
<text text-anchor="middle" x="94.5" y="-165.2" font-family="Times New Roman,serif" font-size="11.00" fill="gray">poggit</text>
</g>
<g id="clust3" class="cluster"><title>cluster_\poggit\libasynql</title>
<path fill="none" stroke="gray" d="M36,-24C36,-24 153,-24 153,-24 159,-24 165,-30 165,-36 165,-36 165,-138 165,-138 165,-144 159,-150 153,-150 153,-150 36,-150 36,-150 30,-150 24,-144 24,-138 24,-138 24,-36 24,-36 24,-30 30,-24 36,-24"/>
<text text-anchor="middle" x="94.5" y="-137.2" font-family="Times New Roman,serif" font-size="11.00" fill="gray">libasynql</text>
</g>
<!-- \\poggit\\libasynql\\generic\\GenericVariable -->
<g id="node1" class="node"><title>\\poggit\\libasynql\\generic\\GenericVariable</title>
<polygon fill="none" stroke="black" points="153.5,-122 35.5,-122 35.5,-86 153.5,-86 153.5,-122"/>
<text text-anchor="middle" x="94.5" y="-101.2" font-family="Courier,monospace" font-size="11.00">GenericVariable</text>
</g>
<!-- \\poggit\\libasynql\\GenericStatement -->
<g id="node2" class="node"><title>\\poggit\\libasynql\\GenericStatement</title>
<polygon fill="none" stroke="black" points="157,-68 32,-68 32,-32 157,-32 157,-68"/>
<text text-anchor="middle" x="94.5" y="-47.2" font-family="Courier,monospace" font-size="11.00">GenericStatement</text>
</g>
</g>
</svg>
